<?xml version="1.0" encoding="UTF-8" standalone="no"?>
<svg
   xmlns:dc="http://purl.org/dc/elements/1.1/"
   xmlns:cc="http://creativecommons.org/ns#"
   xmlns:rdf="http://www.w3.org/1999/02/22-rdf-syntax-ns#"
   xmlns:svg="http://www.w3.org/2000/svg"
   xmlns="http://www.w3.org/2000/svg"
   xmlns:sodipodi="http://sodipodi.sourceforge.net/DTD/sodipodi-0.dtd"
   xmlns:inkscape="http://www.inkscape.org/namespaces/inkscape"
   width="300"
   height="150"
   viewBox="0 0 210 297"
   version="1.1"
   id="svg3705"
   sodipodi:docname="dirk.svg"
   inkscape:version="0.92.2 5c3e80d, 2017-08-06">
  <metadata
     id="metadata1391">
    <rdf:RDF>
      <cc:Work
         rdf:about="">
        <dc:format>image/svg+xml</dc:format>
        <dc:type
           rdf:resource="http://purl.org/dc/dcmitype/StillImage" />
        <dc:title></dc:title>
      </cc:Work>
    </rdf:RDF>
  </metadata>
  <defs
     id="defs1389" />
  <sodipodi:namedview
     pagecolor="#ffffff"
     bordercolor="#666666"
     borderopacity="1"
     objecttolerance="10"
     gridtolerance="10"
     guidetolerance="10"
     inkscape:pageopacity="0"
     inkscape:pageshadow="2"
     inkscape:window-width="1366"
     inkscape:window-height="664"
     id="namedview1387"
     showgrid="false"
     inkscape:zoom="1.5733333"
     inkscape:cx="78.495763"
     inkscape:cy="75"
     inkscape:window-x="0"
     inkscape:window-y="25"
     inkscape:window-maximized="1"
     inkscape:current-layer="svg1385" />
  <text
     x="-111.205"
     y="266.452"
     fill="#c11207"
     stroke="#000"
     stroke-width="2.973"
     font-family="monospace"
     font-size="202.72"
     style="line-height:1.25;-inkscape-font-specification:'monospace, Bold';font-variant-ligatures:normal;font-variant-caps:normal;font-variant-numeric:normal;font-feature-settings:normal;text-align:start"
     font-weight="700"
     letter-spacing="0"
     transform="matrix(.96208 -.0013 .00255 1.03941 0 0)"
     word-spacing="0"
     id="text1369">
    <tspan
       style="-inkscape-font-specification:monospace;font-variant-ligatures:normal;font-variant-caps:normal;font-variant-numeric:normal;font-feature-settings:normal;text-align:start"
       x="-111.205"
       y="266.452"
       font-weight="400"
       id="tspan1367">C</tspan>
  </text>
  <g
     font-family="sans-serif"
     font-weight="700"
     letter-spacing="0"
     word-spacing="0"
     id="g1383">
    <g
       aria-label="D"
       transform="matrix(.96799 -.00138 .00241 1.03307 0 0)"
       style="font-size:211.98100281px;line-height:1.25;-inkscape-font-specification:'sans-serif Bold';fill:#00002e;stroke:#010000;stroke-width:3.08699989"
       id="text1373">
      <path
         d="m -89.012238,183.63795 q 26.394119,0 36.84826,-12.93829 10.454141,-13.0418 10.454141,-46.99188 0,-34.260604 -10.454141,-47.198898 -10.350635,-13.0418 -36.84826,-13.0418 h -9.93661 V 183.63795 Z m 0.414025,-137.352922 q 35.399171,0 52.1672,18.838156 16.768029,18.838155 16.768029,58.584596 0,39.53942 -16.768029,58.37758 -16.768029,18.73465 -52.1672,18.73465 H -119.96064 V 46.285028 Z"
         style="font-weight:400;font-family:monospace;-inkscape-font-specification:monospace;font-variant-ligatures:normal;font-variant-caps:normal;font-variant-numeric:normal;font-feature-settings:normal;text-align:start"
         id="path1428" />
    </g>
    <g
       aria-label="ARPENTRY"
       transform="scale(.91635 1.09129)"
       style="font-size:106.10099792px;line-height:1.25;-inkscape-font-specification:'sans-serif Bold';stroke-width:3.96000004"
       id="text1377">
      <path
         d="M 34.661059,246.47581 H 15.168663 L 12.09262,255.283 H -0.43820606 L 17.4676,206.94057 H 32.329743 L 50.235549,255.283 H 37.704723 Z m -16.383974,-8.96909 h 13.243173 l -6.605397,-19.23337 z"
         style="font-size:66.31300354px;stroke:#010000"
         id="path1431" />
      <path
         d="m 74.32582,228.37573 q 3.917906,0 5.601635,-1.45708 1.716108,-1.45707 1.716108,-4.79215 0,-3.3027 -1.716108,-4.72739 -1.683729,-1.42469 -5.601635,-1.42469 h -5.245463 v 12.40131 z m -5.245463,8.61292 V 255.283 H 56.61429 v -48.34243 h 19.039085 q 9.551922,0 13.987899,3.20556 4.468357,3.20556 4.468357,10.13475 0,4.79215 -2.331317,7.86819 -2.298937,3.07604 -6.96157,4.53312 2.557972,0.58283 4.565495,2.65511 2.039902,2.0399 4.112183,6.21684 L 100.26172,255.283 H 86.986163 l -5.89305,-12.01275 q -1.780866,-3.62649 -3.626492,-4.95405 -1.813246,-1.32755 -4.856909,-1.32755 z"
         style="font-size:66.31300354px;stroke:#010000"
         id="path1433" />
      <path
         d="m 107.64422,206.94057 h 20.69043 q 9.22813,0 14.1498,4.11218 4.95405,4.0798 4.95405,11.65658 0,7.60916 -4.95405,11.72134 -4.92167,4.07981 -14.1498,4.07981 h -8.22436 V 255.283 h -12.46607 z m 12.46607,9.03385 v 13.50221 h 6.89681 q 3.62649,0 5.60163,-1.74849 1.97515,-1.78087 1.97515,-5.01881 0,-3.23794 -1.97515,-4.98642 -1.97514,-1.74849 -5.60163,-1.74849 z"
         style="font-size:66.31300354px;stroke:#010000"
         id="path1435" />
      <path
         d="m 156.21331,206.94057 h 33.64219 v 9.4224 h -21.17612 v 9.00147 h 19.91333 v 9.42241 h -19.91333 v 11.07375 h 21.88847 v 9.4224 h -34.35454 z"
         style="font-size:66.31300354px;stroke:#010000"
         id="path1437" />
      <path
         d="m 201.54447,206.94057 h 13.92314 l 17.58202,33.1565 v -33.1565 h 11.81848 V 255.283 h -13.92314 l -17.58202,-33.1565 v 33.1565 h -11.81848 z"
         style="font-size:66.31300354px;stroke:#010000"
         id="path1439" />
      <path
         d="m 251.34399,206.94057 h 44.55405 v 9.4224 h -16.0278 V 255.283 h -12.46607 v -38.92003 h -16.06018 z"
         style="font-size:66.31300354px;stroke:#010000"
         id="path1441" />
      <path
         d="m 320.02068,228.37573 q 3.91791,0 5.60164,-1.45708 1.71611,-1.45707 1.71611,-4.79215 0,-3.3027 -1.71611,-4.72739 -1.68373,-1.42469 -5.60164,-1.42469 h -5.24546 v 12.40131 z m -5.24546,8.61292 V 255.283 h -12.46607 v -48.34243 h 19.03909 q 9.55192,0 13.9879,3.20556 4.46835,3.20556 4.46835,10.13475 0,4.79215 -2.33131,7.86819 -2.29894,3.07604 -6.96157,4.53312 2.55797,0.58283 4.56549,2.65511 2.0399,2.0399 4.11218,6.21684 l 6.7673,13.72886 h -13.27555 l -5.89305,-12.01275 q -1.78087,-3.62649 -3.6265,-4.95405 -1.81324,-1.32755 -4.85691,-1.32755 z"
         style="font-size:66.31300354px;stroke:#010000"
         id="path1443" />
      <path
         d="m 342.97768,206.94057 h 13.63173 l 11.00899,17.22583 11.009,-17.22583 h 13.6641 l -18.42388,27.97579 V 255.283 h -12.46606 v -20.36664 z"
         style="font-size:66.31300354px;stroke:#010000"
         id="path1445" />
    </g>
    <g
       aria-label="ETAILS"
       transform="scale(.91635 1.09129)"
       style="font-size:106.10099792px;line-height:1.25;-inkscape-font-specification:'sans-serif Bold';stroke-width:3.96000004"
       id="text1381">
      <path
         d="M 3.3004183,141.38983 H 36.943118 v 9.42255 H 15.766674 v 9.00161 h 19.913629 v 9.42254 H 15.766674 v 11.07393 H 37.655476 V 189.733 H 3.3004183 Z"
         style="font-size:66.31400299px;-inkscape-font-specification:'sans-serif, Bold';font-variant-ligatures:normal;font-variant-caps:normal;font-variant-numeric:normal;font-feature-settings:normal;text-align:start;stroke:#010000"
         id="path1448" />
      <path
         d="m 42.868636,141.38983 h 44.55472 v 9.42255 H 71.395314 V 189.733 H 58.929058 V 150.81238 H 42.868636 Z"
         style="font-size:66.31400299px;-inkscape-font-specification:'sans-serif, Bold';font-variant-ligatures:normal;font-variant-caps:normal;font-variant-numeric:normal;font-feature-settings:normal;text-align:start;stroke:#010000"
         id="path1450" />
      <path
         d="M 117.98997,180.92567 H 98.497281 L 95.421192,189.733 H 82.890177 l 17.906073,-48.34317 h 14.86237 L 133.5647,189.733 h -12.53102 z m -16.38422,-8.96922 h 13.24337 l -6.60549,-19.23366 z"
         style="font-size:66.31400299px;-inkscape-font-specification:'sans-serif, Bold';font-variant-ligatures:normal;font-variant-caps:normal;font-variant-numeric:normal;font-feature-settings:normal;text-align:start;stroke:#010000"
         id="path1452" />
      <path
         d="m 139.94353,141.38983 h 12.46626 V 189.733 h -12.46626 z"
         style="font-size:66.31400299px;-inkscape-font-specification:'sans-serif, Bold';font-variant-ligatures:normal;font-variant-caps:normal;font-variant-numeric:normal;font-feature-settings:normal;text-align:start;stroke:#010000"
         id="path1454" />
      <path
         d="m 164.68177,141.38983 h 12.46625 v 38.92063 h 21.8888 v 9.42254 h -34.35505 z"
         style="font-size:66.31400299px;-inkscape-font-specification:'sans-serif, Bold';font-variant-ligatures:normal;font-variant-caps:normal;font-variant-numeric:normal;font-feature-settings:normal;text-align:start;stroke:#010000"
         id="path1456" />
      <path
         d="m 240.54782,142.91169 v 10.23204 q -3.98272,-1.78089 -7.77117,-2.68753 -3.78844,-0.90663 -7.15595,-0.90663 -4.46843,0 -6.6055,1.23043 -2.13707,1.23044 -2.13707,3.82083 0,1.94279 1.42471,3.04371 1.4571,1.06853 5.24554,1.84565 l 5.31031,1.06854 q 8.06259,1.61899 11.46247,4.92174 3.39989,3.30275 3.39989,9.39016 0,7.99784 -4.75984,11.9158 -4.72746,3.88559 -14.47381,3.88559 -4.59794,0 -9.22827,-0.87426 -4.63032,-0.87426 -9.26064,-2.59039 v -10.52346 q 4.63032,2.46087 8.93685,3.72369 4.3389,1.23043 8.35401,1.23043 4.07986,0 6.24931,-1.35995 2.16946,-1.35996 2.16946,-3.88559 0,-2.26659 -1.48948,-3.49703 -1.45709,-1.23043 -5.86076,-2.20183 l -4.8246,-1.06854 q -7.2531,-1.55423 -10.6206,-4.95412 -3.33513,-3.39989 -3.33513,-9.16351 0,-7.22071 4.6627,-11.1063 4.66271,-3.88558 13.40527,-3.88558 3.98273,0 8.19212,0.61522 4.20938,0.58283 8.71018,1.78089 z"
         style="font-size:66.31400299px;-inkscape-font-specification:'sans-serif, Bold';font-variant-ligatures:normal;font-variant-caps:normal;font-variant-numeric:normal;font-feature-settings:normal;text-align:start;stroke:#010000"
         id="path1458" />
    </g>
  </g>
</svg>
